<svg width="268" height="247" viewBox="0 0 268 247" fill="none" xmlns="http://www.w3.org/2000/svg">
<path d="M123.773 193.267C123.133 192.786 122.492 192.386 121.932 191.825C121.371 191.265 121.611 190.704 122.012 190.064C123.853 187.581 125.615 185.099 127.377 182.616C128.178 181.495 128.978 182.056 129.779 182.536C130.5 182.937 131.14 183.417 130.58 184.458C128.978 187.421 127.056 190.064 124.814 192.546C124.574 192.786 124.174 192.946 123.773 193.267Z" fill="#355E3B"/>
<path d="M9 192.385C13.6445 185.018 17.7284 178.371 21.8924 171.725C43.4331 137.372 64.8937 103.099 86.4344 68.8261C95.0827 55.1329 104.051 41.5999 112.379 27.6666C117.344 19.2585 122.709 11.0906 127.674 2.68257C129.756 -0.920884 130.236 -0.840807 132.398 2.6025C141.848 17.737 151.297 32.9516 160.906 48.0061C162.507 50.5685 162.507 51.6095 159.304 52.0099C157.623 52.2502 155.941 52.9709 154.34 53.5314C153.379 53.8517 151.937 54.0118 152.258 55.4532C152.658 57.1348 154.179 56.5743 155.22 56.3341C159.705 55.3732 164.189 54.9728 168.753 55.0528C175.079 55.1329 181.325 55.3732 187.411 57.1348C181.085 58.0958 174.599 58.7364 168.193 60.0977C147.613 64.582 129.436 72.9901 118.305 92.0484C111.178 104.22 110.698 117.353 113.1 130.806C114.862 140.735 115.582 150.585 114.301 160.674C111.819 179.813 93.5612 193.426 77.706 192.785C56.4055 191.904 35.025 192.545 13.7245 192.545C12.4433 192.385 11.2422 192.385 9 192.385Z" fill="#355E3B"/>
<path d="M191.815 60.7393C186.37 63.3818 181.565 65.704 177.241 68.7469C175.159 70.1883 174.919 71.2293 176.36 73.4715C189.333 93.9712 202.225 114.551 215.118 135.051C226.248 152.748 237.379 170.445 248.43 188.142C249.07 189.103 249.631 190.144 250.512 191.665C219.842 191.665 189.573 191.665 158.984 191.665C161.626 185.499 163.388 179.173 163.308 172.366C163.228 161.556 158.904 152.187 154.099 142.898C150.816 136.572 147.052 130.406 144.17 123.84C138.084 109.586 140.086 96.5336 149.294 84.3619C158.744 72.0301 176.441 62.0205 191.815 60.7393Z" fill="#355E3B"/>
<path d="M192.376 30.4702C214.798 37.517 236.338 44.4036 259 51.5304C239.141 64.663 220.403 77.155 200.944 90.0474C201.585 85.8834 202.065 82.5202 202.626 79.237C202.786 78.196 203.186 77.075 203.026 76.114C201.505 68.5067 205.829 65.1435 212.155 62.9013C215.358 61.7002 218.401 59.9385 221.524 58.337C222.405 57.8565 223.926 57.7764 223.846 56.4952C223.766 55.1339 222.165 55.3741 221.284 55.214C216.319 54.253 211.354 53.2921 206.309 52.6515C202.866 52.2511 200.704 51.3703 199.823 47.4465C198.382 41.7611 195.499 36.6361 192.376 30.4702Z" fill="#355E3B"/>
<path d="M133.039 92.5296C132.238 91.7289 129.916 91.809 131.197 89.6469C132.959 86.684 135.121 84.0415 137.523 81.5591C138.084 80.9185 138.724 80.438 139.445 81.2388C140.086 81.8794 141.287 82.52 140.646 83.481C138.484 86.4438 136.162 89.3266 133.84 92.2093C133.76 92.3695 133.439 92.3695 133.039 92.5296Z" fill="#355E3B"/>
<path d="M162.187 67.3857C161.947 67.8661 161.867 68.3466 161.627 68.5067C158.504 70.3485 155.461 72.1102 152.258 73.8719C150.976 74.5926 150.656 73.3113 150.176 72.6707C149.615 71.95 149.615 71.2294 150.496 70.6688C153.459 68.9071 156.422 67.1454 159.465 65.4638C161.547 64.3427 161.226 66.7451 162.187 67.3857Z" fill="#355E3B"/>
<path d="M130.316 130.807C131.037 131.287 132.238 131.447 132.639 132.809C133.359 135.531 134.16 138.174 135.041 140.816C135.441 142.097 135.121 142.818 133.76 143.138C132.799 143.299 131.918 143.619 131.598 142.258C130.717 139.055 129.676 135.851 128.715 132.728C128.234 131.367 128.955 131.047 130.316 130.807Z" fill="#355E3B"/>
<path d="M138.965 163.638C138.965 164.919 138.965 166.281 138.965 167.562C138.965 168.923 138.244 169.404 136.963 169.323C135.602 169.243 135.281 168.603 135.281 167.241C135.281 164.359 135.121 161.476 134.961 158.513C134.881 157.312 135.121 156.511 136.562 156.351C137.924 156.191 138.564 156.671 138.644 157.953C138.805 159.794 138.885 161.636 139.045 163.478C139.045 163.638 138.965 163.638 138.965 163.638Z" fill="#355E3B"/>
<path d="M128.155 109.826C128.155 112.309 128.075 113.67 128.155 115.031C128.235 116.393 128.155 117.354 126.473 117.514C124.711 117.754 124.391 116.713 124.471 115.352C124.551 112.469 124.631 109.506 124.791 106.623C124.871 105.502 124.871 104.141 126.793 104.541C128.395 104.862 128.715 105.662 128.475 107.024C128.235 108.305 128.155 109.666 128.155 109.826Z" fill="#355E3B"/>
<path d="M10.3606 222.223L6.91664 230.343H13.9446L10.3606 222.223ZM22.6526 237.511V238.267H14.0846V237.511C15.41 237.492 16.1286 237.24 16.2406 236.755C16.2593 236.68 16.2686 236.615 16.2686 236.559C16.25 236.148 16.0633 235.504 15.7086 234.627L14.4486 231.743H6.27264L4.87264 235.271C4.70464 235.737 4.62064 236.111 4.62064 236.391C4.65797 237.1 5.38597 237.473 6.80464 237.511V238.267H0.0846406V237.511C0.775307 237.492 1.28864 237.305 1.62464 236.951C2.09131 236.465 2.88464 235.019 4.00464 232.611L9.46464 220.627C9.24064 219.973 8.82997 219.432 8.23264 219.003C8.79264 218.909 9.38064 218.62 9.99664 218.135C10.314 217.911 10.5846 217.771 10.8086 217.715H11.6766L19.7686 234.935C20.4406 236.204 20.954 236.96 21.3086 237.203C21.6073 237.389 22.0553 237.492 22.6526 237.511ZM33.0579 224.267L33.9539 228.859H33.1419C32.5633 226.731 31.4713 225.527 29.8659 225.247C29.6419 225.209 29.4273 225.191 29.2219 225.191C28.0833 225.191 27.3833 225.629 27.1219 226.507C27.0659 226.712 27.0379 226.917 27.0379 227.123C27.0566 227.944 27.4673 228.588 28.2699 229.055L31.6579 230.987C33.4873 232.013 34.4113 233.236 34.4299 234.655C34.4299 235.868 33.8606 236.876 32.7219 237.679C31.8446 238.276 30.8553 238.575 29.7539 238.575H29.3059C27.6819 238.593 26.5899 238.957 26.0299 239.667H24.9659L24.0419 233.507H24.9099C25.6193 236.269 27.1033 237.669 29.3619 237.707C30.6686 237.707 31.4433 237.212 31.6859 236.223C31.7233 236.036 31.7419 235.849 31.7419 235.663C31.7233 234.804 31.2193 234.085 30.2299 233.507L28.4099 232.555C26.1699 231.36 24.9286 230.072 24.6859 228.691C24.6486 228.485 24.6299 228.28 24.6299 228.075C24.6299 226.693 25.2273 225.648 26.4219 224.939C27.1873 224.491 28.0833 224.267 29.1099 224.267C29.4833 224.267 30.2393 224.416 31.3779 224.715C31.7326 224.808 31.9939 224.855 32.1619 224.855L32.3859 224.267H33.0579ZM40.329 217.435C41.0756 217.453 41.617 217.789 41.953 218.443L42.233 219.087C42.233 219.796 41.897 220.3 41.225 220.599C40.945 220.711 40.6463 220.767 40.329 220.767C39.545 220.767 39.013 220.459 38.733 219.843C38.621 219.6 38.565 219.348 38.565 219.087C38.565 218.396 38.873 217.901 39.489 217.603C39.7503 217.491 40.0303 217.435 40.329 217.435ZM36.829 225.891L41.953 224.155L42.149 224.323V235.103C42.149 236.223 42.3076 236.923 42.625 237.203C42.9236 237.427 43.5303 237.576 44.445 237.651V238.267H36.689V237.651C37.8276 237.576 38.5183 237.361 38.761 237.007C38.9476 236.689 39.041 236.055 39.041 235.103V228.075C38.9663 227.048 38.509 226.525 37.669 226.507H36.829V225.891ZM51.4778 224.519H54.4738V225.639H51.5338V235.047C51.5338 236.204 51.7484 236.932 52.1778 237.231C52.5511 237.473 53.3164 237.613 54.4738 237.651V238.267H45.9058V237.651C47.1191 237.576 47.8658 237.352 48.1458 236.979C48.3884 236.643 48.5098 235.999 48.5098 235.047V225.639H45.9338V224.519H48.5098C48.5658 219.703 50.4511 217.285 54.1658 217.267L57.5818 219.199C57.5818 219.815 57.3391 220.309 56.8538 220.683C56.5924 220.888 56.3218 220.991 56.0418 220.991C54.8658 220.916 54.2031 220.263 54.0538 219.031C53.6244 218.601 53.2511 218.377 52.9338 218.359C52.0938 218.359 51.5058 218.807 51.1698 219.703C51.0391 220.095 50.9738 220.524 50.9738 220.991C50.9738 221.047 51.0764 221.541 51.2818 222.475C51.4124 223.109 51.4778 223.744 51.4778 224.379V224.519ZM73.3954 234.571V219.563H71.8834C70.1848 219.563 69.0648 219.759 68.5234 220.151C67.9821 220.543 67.5341 221.467 67.1794 222.923C67.1421 223.072 67.1048 223.231 67.0674 223.399H66.0034V217.127H67.4874C67.8794 217.631 68.2994 217.929 68.7474 218.023C68.9528 218.06 69.1768 218.079 69.4194 218.079H81.3474C82.1128 218.06 82.6914 217.771 83.0834 217.211C83.1021 217.173 83.1208 217.145 83.1394 217.127H84.6514V223.399H83.5594C83.3541 221.775 82.9621 220.729 82.3834 220.263C81.8608 219.833 80.7408 219.6 79.0234 219.563C78.9488 219.563 78.8834 219.563 78.8274 219.563H77.0914V234.907C77.0914 236.027 77.2968 236.736 77.7074 237.035C78.0994 237.296 78.9114 237.455 80.1434 237.511V238.267H70.3994V237.511C71.7621 237.417 72.6021 237.212 72.9194 236.895C73.2368 236.54 73.3954 235.765 73.3954 234.571ZM89.5816 225.303C88.8723 225.471 88.1536 225.919 87.4256 226.647C86.5109 227.599 86.0536 228.691 86.0536 229.923C86.0536 232.461 86.5576 234.449 87.5656 235.887C88.3123 236.932 89.2176 237.464 90.2816 237.483C91.9616 237.483 93.0443 236.512 93.5296 234.571C93.7163 233.861 93.8096 233.059 93.8096 232.163C93.8096 229.624 93.2216 227.711 92.0456 226.423C91.3363 225.676 90.5149 225.303 89.5816 225.303ZM89.9176 224.239C92.2509 224.239 94.1083 225.013 95.4896 226.563C96.6096 227.813 97.1696 229.335 97.1696 231.127C97.1509 233.311 96.3856 235.121 94.8736 236.559L89.9736 238.547C87.7336 238.547 85.9136 237.763 84.5136 236.195C83.3189 234.869 82.7216 233.264 82.7216 231.379C82.7403 229.755 83.1603 228.355 83.9816 227.179L89.9176 224.239ZM114.367 236.559H114.703V237.147C113.098 237.539 111.576 237.996 110.139 238.519L109.803 238.407V235.999L106.303 238.631C103.69 238.537 102.103 237.772 101.543 236.335C101.356 235.831 101.263 235.243 101.263 234.571V226.983C101.263 226.087 100.964 225.527 100.367 225.303C100.106 225.209 99.7602 225.153 99.3309 225.135V224.547H104.371V234.431C104.371 235.289 104.707 235.924 105.379 236.335C105.696 236.521 106.042 236.615 106.415 236.615C107.572 236.615 108.459 236.269 109.075 235.579C109.43 235.168 109.607 234.673 109.607 234.095V227.039C109.607 226.199 109.392 225.676 108.963 225.471C108.627 225.321 108.076 225.237 107.311 225.219V224.547H112.743V234.963C112.743 235.784 112.958 236.279 113.387 236.447C113.611 236.521 113.938 236.559 114.367 236.559ZM116.538 226.507V225.863L121.354 224.239L121.69 224.351V227.067L125.218 224.239C125.983 224.239 126.702 224.603 127.374 225.331C127.785 225.779 128.009 226.208 128.046 226.619L125.162 228.999C125.05 227.991 124.705 227.197 124.126 226.619C123.958 226.469 123.818 226.385 123.706 226.367C123.314 226.367 122.847 226.684 122.306 227.319C121.914 227.823 121.709 228.289 121.69 228.719V235.467C121.69 236.456 122.007 237.091 122.642 237.371C123.034 237.52 123.622 237.613 124.406 237.651V238.267H116.482V237.651C117.565 237.445 118.199 237.212 118.386 236.951C118.554 236.708 118.638 236.279 118.638 235.663V228.159C118.582 227.113 118.227 226.563 117.574 226.507H116.538ZM138.605 224.267L139.501 228.859H138.689C138.11 226.731 137.018 225.527 135.413 225.247C135.189 225.209 134.974 225.191 134.769 225.191C133.63 225.191 132.93 225.629 132.669 226.507C132.613 226.712 132.585 226.917 132.585 227.123C132.603 227.944 133.014 228.588 133.817 229.055L137.205 230.987C139.034 232.013 139.958 233.236 139.977 234.655C139.977 235.868 139.407 236.876 138.269 237.679C137.391 238.276 136.402 238.575 135.301 238.575H134.853C133.229 238.593 132.137 238.957 131.577 239.667H130.513L129.589 233.507H130.457C131.166 236.269 132.65 237.669 134.909 237.707C136.215 237.707 136.99 237.212 137.233 236.223C137.27 236.036 137.289 235.849 137.289 235.663C137.27 234.804 136.766 234.085 135.777 233.507L133.957 232.555C131.717 231.36 130.475 230.072 130.233 228.691C130.195 228.485 130.177 228.28 130.177 228.075C130.177 226.693 130.774 225.648 131.969 224.939C132.734 224.491 133.63 224.267 134.657 224.267C135.03 224.267 135.786 224.416 136.925 224.715C137.279 224.808 137.541 224.855 137.709 224.855L137.933 224.267H138.605ZM158.969 227.935C157.046 229.185 155.926 230.436 155.609 231.687C155.534 232.023 155.497 232.368 155.497 232.723C155.497 233.992 155.973 235.047 156.925 235.887C157.653 236.521 158.465 236.839 159.361 236.839C160.537 236.82 161.965 236.213 163.645 235.019C162.077 233.208 160.518 230.847 158.969 227.935ZM161.321 225.499C163.58 224.229 164.718 222.82 164.737 221.271C164.737 220.225 164.326 219.497 163.505 219.087C163.169 218.919 162.796 218.835 162.385 218.835C161.452 218.835 160.798 219.245 160.425 220.067C160.276 220.421 160.201 220.795 160.201 221.187C160.22 222.437 160.593 223.875 161.321 225.499ZM166.613 225.219H173.893V226.031C172.68 226.18 171.784 226.628 171.205 227.375C171.093 227.505 170.99 227.645 170.897 227.795L170.085 229.167C169.618 229.932 168.564 231.425 166.921 233.647C168.396 235.401 169.964 236.288 171.625 236.307C172.726 236.288 173.678 235.747 174.481 234.683L175.209 235.103C174.238 237.231 172.754 238.407 170.757 238.631C170.533 238.649 170.318 238.659 170.113 238.659C168.433 238.64 166.613 237.735 164.653 235.943C162.488 237.753 160.201 238.659 157.793 238.659C155.142 238.659 153.388 237.828 152.529 236.167C152.212 235.532 152.053 234.804 152.053 233.983C152.09 231.388 153.808 229.167 157.205 227.319L158.325 226.731C157.578 224.827 157.205 223.389 157.205 222.419C157.205 220.907 157.812 219.675 159.025 218.723C159.958 218.013 161.06 217.659 162.329 217.659C164.009 217.659 165.288 218.181 166.165 219.227C166.669 219.861 166.921 220.589 166.921 221.411C166.921 223.128 165.876 224.565 163.785 225.723C163.244 226.021 162.628 226.311 161.937 226.591C163.244 229.036 164.578 231.061 165.941 232.667C167.714 230.277 168.601 228.485 168.601 227.291C168.601 226.712 168.265 226.339 167.593 226.171C167.332 226.115 167.005 226.068 166.613 226.031V225.219ZM193.489 234.571V219.563H191.977C190.279 219.563 189.159 219.759 188.617 220.151C188.076 220.543 187.628 221.467 187.273 222.923C187.236 223.072 187.199 223.231 187.161 223.399H186.097V217.127H187.581C187.973 217.631 188.393 217.929 188.841 218.023C189.047 218.06 189.271 218.079 189.513 218.079H201.441C202.207 218.06 202.785 217.771 203.177 217.211C203.196 217.173 203.215 217.145 203.233 217.127H204.745V223.399H203.653C203.448 221.775 203.056 220.729 202.477 220.263C201.955 219.833 200.835 219.6 199.117 219.563C199.043 219.563 198.977 219.563 198.921 219.563H197.185V234.907C197.185 236.027 197.391 236.736 197.801 237.035C198.193 237.296 199.005 237.455 200.237 237.511V238.267H190.493V237.511C191.856 237.417 192.696 237.212 193.013 236.895C193.331 236.54 193.489 235.765 193.489 234.571ZM203.245 226.507V225.863L208.061 224.239L208.397 224.351V227.067L211.925 224.239C212.69 224.239 213.409 224.603 214.081 225.331C214.492 225.779 214.716 226.208 214.753 226.619L211.869 228.999C211.757 227.991 211.412 227.197 210.833 226.619C210.665 226.469 210.525 226.385 210.413 226.367C210.021 226.367 209.554 226.684 209.013 227.319C208.621 227.823 208.416 228.289 208.397 228.719V235.467C208.397 236.456 208.714 237.091 209.349 237.371C209.741 237.52 210.329 237.613 211.113 237.651V238.267H203.189V237.651C204.272 237.445 204.906 237.212 205.093 236.951C205.261 236.708 205.345 236.279 205.345 235.663V228.159C205.289 227.113 204.934 226.563 204.281 226.507H203.245ZM223.89 234.459V230.875C222.527 231.024 221.332 231.528 220.306 232.387C219.596 233.021 219.232 233.656 219.214 234.291V234.403C219.214 235.299 219.522 235.952 220.138 236.363C220.399 236.531 220.67 236.615 220.95 236.615C221.958 236.615 222.751 236.325 223.33 235.747C223.703 235.373 223.89 234.944 223.89 234.459ZM229.182 236.055V237.007C228.192 238.033 227.184 238.547 226.158 238.547C225.075 238.547 224.403 238.052 224.142 237.063C224.104 236.857 224.067 236.633 224.03 236.391C222.238 237.753 220.726 238.472 219.494 238.547C218 238.547 216.946 238.005 216.33 236.923C216.068 236.437 215.938 235.887 215.938 235.271C215.956 234.132 216.367 233.227 217.17 232.555C218.402 231.528 220.072 230.763 222.182 230.259C222.816 230.109 223.386 230.016 223.89 229.979V227.571C223.796 226.488 223.507 225.816 223.022 225.555C222.779 225.424 222.471 225.34 222.098 225.303C221.556 225.303 220.884 225.601 220.082 226.199C219.727 226.479 219.531 226.703 219.494 226.871C219.494 226.983 219.522 227.151 219.578 227.375C219.652 227.599 219.718 227.795 219.774 227.963L219.886 228.215L218.178 229.223C217.506 229.223 217.011 228.943 216.694 228.383C216.582 228.159 216.526 227.935 216.526 227.711C216.526 227.3 217.235 226.647 218.654 225.751C220.222 224.761 221.36 224.257 222.07 224.239H222.098C224.207 224.239 225.598 224.817 226.27 225.975C226.718 226.759 226.942 227.841 226.942 229.223V235.019C226.942 236.008 227.119 236.54 227.474 236.615C227.53 236.633 227.586 236.643 227.642 236.643C228.09 236.624 228.603 236.428 229.182 236.055ZM238.926 224.547H243.742V225.163C243.22 225.219 242.837 225.415 242.594 225.751C242.464 225.956 242.165 226.535 241.698 227.487L237.61 237.147C237.106 238.155 236.733 238.668 236.49 238.687C236.304 238.649 236.07 238.416 235.79 237.987C235.753 237.912 235.725 237.865 235.706 237.847L231.646 228.607C230.769 226.796 230.172 225.76 229.854 225.499C229.63 225.312 229.266 225.2 228.762 225.163V224.547H235.37V225.163C234.456 225.275 233.989 225.527 233.97 225.919C233.97 226.255 234.054 226.609 234.222 226.983L237.274 234.627L240.186 226.927C240.298 226.609 240.354 226.311 240.354 226.031C240.317 225.545 239.841 225.256 238.926 225.163V224.547ZM247.509 231.519L253.893 228.719C253.594 226.759 252.698 225.713 251.205 225.583C251.055 225.564 250.915 225.555 250.785 225.555H250.617C249.329 225.573 248.395 226.441 247.817 228.159C247.555 228.961 247.425 229.773 247.425 230.595C247.425 230.968 247.453 231.276 247.509 231.519ZM257.001 233.115L257.729 233.423C256.31 236.82 254.014 238.528 250.841 238.547C248.731 238.547 247.098 237.688 245.941 235.971C245.138 234.757 244.718 233.348 244.681 231.743C244.699 229.26 245.483 227.309 247.033 225.891C248.265 224.789 249.767 224.239 251.541 224.239C254.229 224.257 256.002 225.368 256.861 227.571C256.991 227.645 257.197 227.683 257.477 227.683C257.719 227.683 257.962 227.655 258.205 227.599V228.495L247.817 232.891C248.153 234.235 248.778 235.168 249.693 235.691C250.365 236.064 251.186 236.26 252.157 236.279C253.706 236.279 255.059 235.569 256.217 234.151C256.478 233.833 256.739 233.488 257.001 233.115ZM260.343 219.283H259.587V218.667L264.739 217.267L265.047 217.379V235.663C265.047 236.559 265.271 237.119 265.719 237.343C266.018 237.492 266.569 237.595 267.371 237.651V238.267H259.643V237.651C260.801 237.557 261.51 237.277 261.771 236.811C261.921 236.531 261.995 236.111 261.995 235.551V220.991C261.977 220.132 261.781 219.609 261.407 219.423C261.165 219.329 260.847 219.283 260.455 219.283H260.343Z" fill="#355E3B"/>
</svg>
