<svg width="313" height="247" viewBox="0 0 313 247" fill="none" xmlns="http://www.w3.org/2000/svg">
<path d="M146.273 193.267C145.633 192.786 144.992 192.386 144.432 191.825C143.871 191.265 144.111 190.704 144.512 190.064C146.353 187.581 148.115 185.099 149.877 182.616C150.678 181.495 151.478 182.056 152.279 182.536C153 182.937 153.64 183.417 153.08 184.458C151.478 187.421 149.556 190.064 147.314 192.546C147.074 192.786 146.674 192.946 146.273 193.267Z" fill="#fff"/>
<path d="M31.5 192.385C36.1445 185.018 40.2284 178.371 44.3924 171.725C65.9331 137.372 87.3937 103.099 108.934 68.8261C117.583 55.1329 126.551 41.5999 134.879 27.6666C139.844 19.2585 145.209 11.0906 150.174 2.68257C152.256 -0.920884 152.736 -0.840807 154.898 2.6025C164.348 17.737 173.797 32.9516 183.406 48.0061C185.007 50.5685 185.007 51.6095 181.804 52.0099C180.123 52.2502 178.441 52.9709 176.84 53.5314C175.879 53.8517 174.437 54.0118 174.758 55.4532C175.158 57.1348 176.679 56.5743 177.72 56.3341C182.205 55.3732 186.689 54.9728 191.253 55.0528C197.579 55.1329 203.825 55.3732 209.911 57.1348C203.585 58.0958 197.099 58.7364 190.693 60.0977C170.113 64.582 151.936 72.9901 140.805 92.0484C133.678 104.22 133.198 117.353 135.6 130.806C137.362 140.735 138.082 150.585 136.801 160.674C134.319 179.813 116.061 193.426 100.206 192.785C78.9055 191.904 57.525 192.545 36.2245 192.545C34.9433 192.385 33.7422 192.385 31.5 192.385Z" fill="#fff"/>
<path d="M214.315 60.7393C208.87 63.3818 204.065 65.704 199.741 68.7469C197.659 70.1883 197.419 71.2293 198.86 73.4715C211.833 93.9712 224.725 114.551 237.618 135.051C248.748 152.748 259.879 170.445 270.93 188.142C271.57 189.103 272.131 190.144 273.012 191.665C242.342 191.665 212.073 191.665 181.484 191.665C184.126 185.499 185.888 179.173 185.808 172.366C185.728 161.556 181.404 152.187 176.599 142.898C173.316 136.572 169.552 130.406 166.67 123.84C160.584 109.586 162.586 96.5336 171.794 84.3619C181.244 72.0301 198.941 62.0205 214.315 60.7393Z" fill="#fff"/>
<path d="M214.876 30.4702C237.298 37.517 258.838 44.4036 281.5 51.5304C261.641 64.663 242.903 77.155 223.444 90.0474C224.085 85.8834 224.565 82.5202 225.126 79.237C225.286 78.196 225.686 77.075 225.526 76.114C224.005 68.5067 228.329 65.1435 234.655 62.9013C237.858 61.7002 240.901 59.9385 244.024 58.337C244.905 57.8565 246.426 57.7764 246.346 56.4952C246.266 55.1339 244.665 55.3741 243.784 55.214C238.819 54.253 233.854 53.2921 228.809 52.6515C225.366 52.2511 223.204 51.3703 222.323 47.4465C220.882 41.7611 217.999 36.6361 214.876 30.4702Z" fill="#fff"/>
<path d="M155.539 92.5296C154.738 91.7289 152.416 91.809 153.697 89.6469C155.459 86.684 157.621 84.0415 160.023 81.5591C160.584 80.9185 161.224 80.438 161.945 81.2388C162.586 81.8794 163.787 82.52 163.146 83.481C160.984 86.4438 158.662 89.3266 156.34 92.2093C156.26 92.3695 155.939 92.3695 155.539 92.5296Z" fill="#fff"/>
<path d="M184.687 67.3857C184.447 67.8661 184.367 68.3466 184.127 68.5067C181.004 70.3485 177.961 72.1102 174.758 73.8719C173.476 74.5926 173.156 73.3113 172.676 72.6707C172.115 71.95 172.115 71.2294 172.996 70.6688C175.959 68.9071 178.922 67.1454 181.965 65.4638C184.047 64.3427 183.726 66.7451 184.687 67.3857Z" fill="#fff"/>
<path d="M152.816 130.807C153.537 131.287 154.738 131.447 155.139 132.809C155.859 135.531 156.66 138.174 157.541 140.816C157.941 142.097 157.621 142.818 156.26 143.138C155.299 143.299 154.418 143.619 154.098 142.258C153.217 139.055 152.176 135.851 151.215 132.728C150.734 131.367 151.455 131.047 152.816 130.807Z" fill="url(#paint6_linear_188_54)"/>
<path d="M161.465 163.638C161.465 164.919 161.465 166.281 161.465 167.562C161.465 168.923 160.744 169.404 159.463 169.323C158.102 169.243 157.781 168.603 157.781 167.241C157.781 164.359 157.621 161.476 157.461 158.513C157.381 157.312 157.621 156.511 159.062 156.351C160.424 156.191 161.064 156.671 161.144 157.953C161.305 159.794 161.385 161.636 161.545 163.478C161.545 163.638 161.465 163.638 161.465 163.638Z" fill="url(#paint7_linear_188_54)"/>
<path d="M150.655 109.826C150.655 112.309 150.575 113.67 150.655 115.031C150.735 116.393 150.655 117.354 148.973 117.514C147.211 117.754 146.891 116.713 146.971 115.352C147.051 112.469 147.131 109.506 147.291 106.623C147.371 105.502 147.371 104.141 149.293 104.541C150.895 104.862 151.215 105.662 150.975 107.024C150.735 108.305 150.655 109.666 150.655 109.826Z" fill="url(#paint8_linear_188_54)"/>
<path d="M12.9314 218.835V218.079H21.7234V218.835C20.4541 218.928 19.4928 219.171 18.8394 219.563L17.8314 220.291L16.8234 221.187L10.7754 226.787L18.2234 234.263C19.8474 235.905 20.9394 236.867 21.4994 237.147C21.9288 237.371 22.5168 237.492 23.2634 237.511V238.267H13.0994V237.511C14.2754 237.417 14.9008 237.361 14.9754 237.343C15.1994 237.249 15.3208 237.1 15.3394 236.895C15.3394 236.167 14.1354 234.664 11.7274 232.387C11.5408 232.219 11.3634 232.051 11.1954 231.883L7.97542 228.719L7.30342 229.307V234.907C7.30342 236.027 7.49942 236.736 7.89142 237.035C8.24609 237.296 9.01142 237.455 10.1874 237.511V238.267H0.779422V237.511C2.06742 237.417 2.86076 237.203 3.15942 236.867C3.43942 236.512 3.57942 235.747 3.57942 234.571V221.467C3.57942 220.403 3.43009 219.703 3.13142 219.367L2.54342 219.143C2.02076 218.993 1.43276 218.891 0.779422 218.835V218.079H10.2714V218.835C8.94609 218.928 8.09676 219.152 7.72342 219.507L7.49942 219.927L7.30342 220.907V227.543L12.6794 222.727C14.2661 221.271 15.0688 220.253 15.0874 219.675C15.0874 219.301 14.8821 219.077 14.4714 219.003C14.3408 218.965 14.0888 218.937 13.7154 218.919C13.3794 218.881 13.1181 218.853 12.9314 218.835ZM32.5069 234.459V230.875C31.1443 231.024 29.9496 231.528 28.9229 232.387C28.2136 233.021 27.8496 233.656 27.8309 234.291V234.403C27.8309 235.299 28.1389 235.952 28.7549 236.363C29.0163 236.531 29.2869 236.615 29.5669 236.615C30.5749 236.615 31.3683 236.325 31.9469 235.747C32.3203 235.373 32.5069 234.944 32.5069 234.459ZM37.7989 236.055V237.007C36.8096 238.033 35.8016 238.547 34.7749 238.547C33.6923 238.547 33.0203 238.052 32.7589 237.063C32.7216 236.857 32.6843 236.633 32.6469 236.391C30.8549 237.753 29.3429 238.472 28.1109 238.547C26.6176 238.547 25.5629 238.005 24.9469 236.923C24.6856 236.437 24.5549 235.887 24.5549 235.271C24.5736 234.132 24.9843 233.227 25.7869 232.555C27.0189 231.528 28.6896 230.763 30.7989 230.259C31.4336 230.109 32.0029 230.016 32.5069 229.979V227.571C32.4136 226.488 32.1243 225.816 31.6389 225.555C31.3963 225.424 31.0883 225.34 30.7149 225.303C30.1736 225.303 29.5016 225.601 28.6989 226.199C28.3443 226.479 28.1483 226.703 28.1109 226.871C28.1109 226.983 28.1389 227.151 28.1949 227.375C28.2696 227.599 28.3349 227.795 28.3909 227.963L28.5029 228.215L26.7949 229.223C26.1229 229.223 25.6283 228.943 25.3109 228.383C25.1989 228.159 25.1429 227.935 25.1429 227.711C25.1429 227.3 25.8523 226.647 27.2709 225.751C28.8389 224.761 29.9776 224.257 30.6869 224.239H30.7149C32.8243 224.239 34.2149 224.817 34.8869 225.975C35.3349 226.759 35.5589 227.841 35.5589 229.223V235.019C35.5589 236.008 35.7363 236.54 36.0909 236.615C36.1469 236.633 36.2029 236.643 36.2589 236.643C36.7069 236.624 37.2203 236.428 37.7989 236.055ZM48.886 224.267L49.782 228.859H48.97C48.3914 226.731 47.2994 225.527 45.694 225.247C45.47 225.209 45.2554 225.191 45.05 225.191C43.9114 225.191 43.2114 225.629 42.95 226.507C42.894 226.712 42.866 226.917 42.866 227.123C42.8847 227.944 43.2954 228.588 44.098 229.055L47.486 230.987C49.3154 232.013 50.2394 233.236 50.258 234.655C50.258 235.868 49.6887 236.876 48.55 237.679C47.6727 238.276 46.6834 238.575 45.582 238.575H45.134C43.51 238.593 42.418 238.957 41.858 239.667H40.794L39.87 233.507H40.738C41.4474 236.269 42.9314 237.669 45.19 237.707C46.4967 237.707 47.2714 237.212 47.514 236.223C47.5514 236.036 47.57 235.849 47.57 235.663C47.5514 234.804 47.0474 234.085 46.058 233.507L44.238 232.555C41.998 231.36 40.7567 230.072 40.514 228.691C40.4767 228.485 40.458 228.28 40.458 228.075C40.458 226.693 41.0554 225.648 42.25 224.939C43.0154 224.491 43.9114 224.267 44.938 224.267C45.3114 224.267 46.0674 224.416 47.206 224.715C47.5607 224.808 47.822 224.855 47.99 224.855L48.214 224.267H48.886ZM57.5011 227.963L57.4731 235.103C57.4731 236.241 57.6597 236.941 58.0331 237.203C58.3131 237.408 58.8451 237.557 59.6291 237.651V238.267H52.4051V237.651C53.3571 237.52 53.9264 237.296 54.1131 236.979C54.2997 236.68 54.3931 236.055 54.3931 235.103V220.711V220.599C54.3931 220.057 54.1224 219.665 53.5811 219.423C53.4504 219.367 53.3757 219.329 53.3571 219.311H52.4331V218.667L57.1651 217.267L57.4731 217.407V226.731L61.9531 224.183C64.7157 224.22 66.1064 225.853 66.1251 229.083V235.103C66.1251 236.185 66.2557 236.857 66.5171 237.119C66.7597 237.324 67.2637 237.501 68.0291 237.651V238.267H60.8891V237.651C61.9157 237.539 62.5411 237.268 62.7651 236.839C62.9331 236.503 63.0171 235.924 63.0171 235.103V229.111C62.9984 227.076 62.2797 226.049 60.8611 226.031C60.0211 226.031 59.0224 226.553 57.8651 227.599C57.7344 227.729 57.6131 227.851 57.5011 227.963ZM69.6929 226.311V225.639L74.3969 224.239L74.7609 224.351V226.591L79.5489 224.239C81.2662 224.239 82.4142 224.677 82.9929 225.555C83.1236 225.779 83.2356 226.012 83.3289 226.255L88.2289 224.239C89.9462 224.239 91.1502 224.799 91.8409 225.919C92.1396 226.385 92.2889 226.88 92.2889 227.403V235.887C92.3076 236.913 92.6902 237.464 93.4369 237.539L94.4169 237.651V238.267H86.9969V237.651C87.9862 237.52 88.5929 237.296 88.8169 236.979C88.9662 236.717 89.0409 236.241 89.0409 235.551V229.223C89.0409 227.543 88.6676 226.535 87.9209 226.199C87.6409 226.087 87.3049 226.031 86.9129 226.031C85.5129 226.049 84.4209 226.572 83.6369 227.599V235.327C83.6369 236.409 83.8982 237.091 84.4209 237.371C84.7382 237.52 85.2329 237.613 85.9049 237.651V238.267H78.2609V237.651C79.3436 237.576 79.9969 237.352 80.2209 236.979C80.3702 236.699 80.4449 236.241 80.4449 235.607V229.083C80.4262 227.067 79.7916 226.049 78.5409 226.031C77.6636 226.031 76.7396 226.32 75.7689 226.899C75.2836 227.197 75.0316 227.459 75.0129 227.683V236.167C75.0129 236.857 75.2742 237.287 75.7969 237.455C76.0956 237.548 76.5342 237.613 77.1129 237.651V238.267H69.6089V237.651C70.6916 237.595 71.3449 237.333 71.5689 236.867C71.6996 236.587 71.7649 236.176 71.7649 235.635V228.019C71.7462 226.899 71.4102 226.329 70.7569 226.311H69.6929ZM99.4696 217.435C100.216 217.453 100.758 217.789 101.094 218.443L101.374 219.087C101.374 219.796 101.038 220.3 100.366 220.599C100.086 220.711 99.7869 220.767 99.4696 220.767C98.6856 220.767 98.1536 220.459 97.8736 219.843C97.7616 219.6 97.7056 219.348 97.7056 219.087C97.7056 218.396 98.0136 217.901 98.6296 217.603C98.8909 217.491 99.1709 217.435 99.4696 217.435ZM95.9696 225.891L101.094 224.155L101.29 224.323V235.103C101.29 236.223 101.448 236.923 101.766 237.203C102.064 237.427 102.671 237.576 103.586 237.651V238.267H95.8296V237.651C96.9682 237.576 97.6589 237.361 97.9016 237.007C98.0882 236.689 98.1816 236.055 98.1816 235.103V228.075C98.1069 227.048 97.6496 226.525 96.8096 226.507H95.9696V225.891ZM105.186 226.507V225.863L110.002 224.239L110.338 224.351V227.067L113.866 224.239C114.632 224.239 115.35 224.603 116.022 225.331C116.433 225.779 116.657 226.208 116.694 226.619L113.81 228.999C113.698 227.991 113.353 227.197 112.774 226.619C112.606 226.469 112.466 226.385 112.354 226.367C111.962 226.367 111.496 226.684 110.954 227.319C110.562 227.823 110.357 228.289 110.338 228.719V235.467C110.338 236.456 110.656 237.091 111.29 237.371C111.682 237.52 112.27 237.613 113.054 237.651V238.267H105.13V237.651C106.213 237.445 106.848 237.212 107.034 236.951C107.202 236.708 107.286 236.279 107.286 235.663V228.159C107.23 227.113 106.876 226.563 106.222 226.507H105.186ZM139.19 217.659C140.814 217.677 142.41 217.911 143.978 218.359C144.463 218.508 144.846 218.583 145.126 218.583C145.76 218.545 146.152 218.237 146.302 217.659H147.59V224.631H146.526C145.891 222.895 145.312 221.756 144.79 221.215L144.398 220.879C143.128 219.665 141.598 219.059 139.806 219.059C137.267 219.059 135.326 220.076 133.982 222.111C132.955 223.66 132.442 225.601 132.442 227.935C132.46 231.22 133.291 233.637 134.934 235.187C135.102 235.485 135.568 235.84 136.334 236.251C137.472 236.829 138.742 237.119 140.142 237.119C142.774 237.1 145.144 236.083 147.254 234.067L148.094 234.739C145.928 237.315 142.932 238.631 139.106 238.687C136.119 238.668 133.608 237.828 131.574 236.167L130.93 235.551C129.25 233.721 128.363 231.453 128.27 228.747V228.327C128.27 224.929 129.502 222.232 131.966 220.235C133.963 218.611 136.371 217.752 139.19 217.659ZM158.04 222.223L154.596 230.343H161.624L158.04 222.223ZM170.332 237.511V238.267H161.764V237.511C163.09 237.492 163.808 237.24 163.92 236.755C163.939 236.68 163.948 236.615 163.948 236.559C163.93 236.148 163.743 235.504 163.388 234.627L162.128 231.743H153.952L152.552 235.271C152.384 235.737 152.3 236.111 152.3 236.391C152.338 237.1 153.066 237.473 154.484 237.511V238.267H147.764V237.511C148.455 237.492 148.968 237.305 149.304 236.951C149.771 236.465 150.564 235.019 151.684 232.611L157.144 220.627C156.92 219.973 156.51 219.432 155.912 219.003C156.472 218.909 157.06 218.62 157.676 218.135C157.994 217.911 158.264 217.771 158.488 217.715H159.356L167.448 234.935C168.12 236.204 168.634 236.96 168.988 237.203C169.287 237.389 169.735 237.492 170.332 237.511ZM177.658 220.179V227.011H180.514C183.426 226.917 184.91 225.723 184.966 223.427C184.928 220.776 183.127 219.441 179.562 219.423H178.162C177.826 219.423 177.658 219.675 177.658 220.179ZM177.658 228.411V235.831C177.658 236.428 177.956 236.783 178.554 236.895C178.796 236.932 179.104 236.951 179.478 236.951C182.875 236.951 184.863 236.036 185.442 234.207C185.572 233.777 185.638 233.301 185.638 232.779C185.619 230.968 184.77 229.727 183.09 229.055C182.1 228.625 180.29 228.411 177.658 228.411ZM170.966 218.835V218.079H180.066C185.666 218.265 188.54 220.001 188.69 223.287C188.69 225.004 187.934 226.236 186.422 226.983C185.843 227.263 185.143 227.496 184.322 227.683C187.402 228.429 189.175 229.699 189.642 231.491C189.735 231.883 189.782 232.303 189.782 232.751C189.782 234.785 188.811 236.297 186.87 237.287C185.656 237.884 184.172 238.211 182.418 238.267H170.966V237.511C172.347 237.473 173.206 237.259 173.542 236.867C173.822 236.512 173.962 235.859 173.962 234.907V221.467C173.943 220.365 173.775 219.665 173.458 219.367L172.926 219.115C172.291 218.947 171.638 218.853 170.966 218.835ZM211.089 224.267L211.985 228.859H211.173C210.595 226.731 209.503 225.527 207.897 225.247C207.673 225.209 207.459 225.191 207.253 225.191C206.115 225.191 205.415 225.629 205.153 226.507C205.097 226.712 205.069 226.917 205.069 227.123C205.088 227.944 205.499 228.588 206.301 229.055L209.689 230.987C211.519 232.013 212.443 233.236 212.461 234.655C212.461 235.868 211.892 236.876 210.753 237.679C209.876 238.276 208.887 238.575 207.785 238.575H207.337C205.713 238.593 204.621 238.957 204.061 239.667H202.997L202.073 233.507H202.941C203.651 236.269 205.135 237.669 207.393 237.707C208.7 237.707 209.475 237.212 209.717 236.223C209.755 236.036 209.773 235.849 209.773 235.663C209.755 234.804 209.251 234.085 208.261 233.507L206.441 232.555C204.201 231.36 202.96 230.072 202.717 228.691C202.68 228.485 202.661 228.28 202.661 228.075C202.661 226.693 203.259 225.648 204.453 224.939C205.219 224.491 206.115 224.267 207.141 224.267C207.515 224.267 208.271 224.416 209.409 224.715C209.764 224.808 210.025 224.855 210.193 224.855L210.417 224.267H211.089ZM218.192 231.519L224.576 228.719C224.278 226.759 223.382 225.713 221.888 225.583C221.739 225.564 221.599 225.555 221.468 225.555H221.3C220.012 225.573 219.079 226.441 218.5 228.159C218.239 228.961 218.108 229.773 218.108 230.595C218.108 230.968 218.136 231.276 218.192 231.519ZM227.684 233.115L228.412 233.423C226.994 236.82 224.698 238.528 221.524 238.547C219.415 238.547 217.782 237.688 216.624 235.971C215.822 234.757 215.402 233.348 215.364 231.743C215.383 229.26 216.167 227.309 217.716 225.891C218.948 224.789 220.451 224.239 222.224 224.239C224.912 224.257 226.686 225.368 227.544 227.571C227.675 227.645 227.88 227.683 228.16 227.683C228.403 227.683 228.646 227.655 228.888 227.599V228.495L218.5 232.891C218.836 234.235 219.462 235.168 220.376 235.691C221.048 236.064 221.87 236.26 222.84 236.279C224.39 236.279 225.743 235.569 226.9 234.151C227.162 233.833 227.423 233.488 227.684 233.115ZM230.831 226.507V225.863L235.647 224.239L235.983 224.351V227.067L239.511 224.239C240.276 224.239 240.995 224.603 241.667 225.331C242.078 225.779 242.302 226.208 242.339 226.619L239.455 228.999C239.343 227.991 238.998 227.197 238.419 226.619C238.251 226.469 238.111 226.385 237.999 226.367C237.607 226.367 237.14 226.684 236.599 227.319C236.207 227.823 236.002 228.289 235.983 228.719V235.467C235.983 236.456 236.3 237.091 236.935 237.371C237.327 237.52 237.915 237.613 238.699 237.651V238.267H230.775V237.651C231.858 237.445 232.492 237.212 232.679 236.951C232.847 236.708 232.931 236.279 232.931 235.663V228.159C232.875 227.113 232.52 226.563 231.867 226.507H230.831ZM253.579 224.547H258.395V225.163C257.872 225.219 257.489 225.415 257.247 225.751C257.116 225.956 256.817 226.535 256.351 227.487L252.263 237.147C251.759 238.155 251.385 238.668 251.143 238.687C250.956 238.649 250.723 238.416 250.443 237.987C250.405 237.912 250.377 237.865 250.359 237.847L246.299 228.607C245.421 226.796 244.824 225.76 244.507 225.499C244.283 225.312 243.919 225.2 243.415 225.163V224.547H250.023V225.163C249.108 225.275 248.641 225.527 248.623 225.919C248.623 226.255 248.707 226.609 248.875 226.983L251.927 234.627L254.839 226.927C254.951 226.609 255.007 226.311 255.007 226.031C254.969 225.545 254.493 225.256 253.579 225.163V224.547ZM263.231 217.435C263.978 217.453 264.519 217.789 264.855 218.443L265.135 219.087C265.135 219.796 264.799 220.3 264.127 220.599C263.847 220.711 263.549 220.767 263.231 220.767C262.447 220.767 261.915 220.459 261.635 219.843C261.523 219.6 261.467 219.348 261.467 219.087C261.467 218.396 261.775 217.901 262.391 217.603C262.653 217.491 262.933 217.435 263.231 217.435ZM259.731 225.891L264.855 224.155L265.051 224.323V235.103C265.051 236.223 265.21 236.923 265.527 237.203C265.826 237.427 266.433 237.576 267.347 237.651V238.267H259.591V237.651C260.73 237.576 261.421 237.361 261.663 237.007C261.85 236.689 261.943 236.055 261.943 235.103V228.075C261.869 227.048 261.411 226.525 260.571 226.507H259.731V225.891ZM281.688 233.115L282.416 233.423C280.997 236.82 278.701 238.528 275.528 238.547C273.419 238.547 271.785 237.688 270.628 235.971C269.825 234.757 269.405 233.348 269.368 231.743C269.387 229.26 270.171 227.309 271.72 225.891C272.952 224.789 274.455 224.239 276.228 224.239C278.916 224.257 280.689 225.368 281.548 227.571C281.679 227.645 281.884 227.683 282.164 227.683C282.407 227.683 282.649 227.655 282.892 227.599V228.495L279.672 229.755C279.224 229.755 278.888 229.549 278.664 229.139C278.608 229.008 278.58 228.877 278.58 228.747V228.719C278.281 226.759 277.385 225.713 275.892 225.583C275.743 225.564 275.603 225.555 275.472 225.555H275.304C274.035 225.629 273.213 226.329 272.84 227.655C272.616 228.42 272.504 229.437 272.504 230.707C272.541 232.312 272.98 233.665 273.82 234.767C274.623 235.756 275.631 236.26 276.844 236.279C278.393 236.279 279.747 235.569 280.904 234.151C281.165 233.833 281.427 233.488 281.688 233.115ZM288.083 231.519L294.467 228.719C294.168 226.759 293.272 225.713 291.779 225.583C291.629 225.564 291.489 225.555 291.359 225.555H291.191C289.903 225.573 288.969 226.441 288.391 228.159C288.129 228.961 287.999 229.773 287.999 230.595C287.999 230.968 288.027 231.276 288.083 231.519ZM297.575 233.115L298.303 233.423C296.884 236.82 294.588 238.528 291.415 238.547C289.305 238.547 287.672 237.688 286.515 235.971C285.712 234.757 285.292 233.348 285.255 231.743C285.273 229.26 286.057 227.309 287.607 225.891C288.839 224.789 290.341 224.239 292.115 224.239C294.803 224.257 296.576 225.368 297.435 227.571C297.565 227.645 297.771 227.683 298.051 227.683C298.293 227.683 298.536 227.655 298.779 227.599V228.495L288.391 232.891C288.727 234.235 289.352 235.168 290.267 235.691C290.939 236.064 291.76 236.26 292.731 236.279C294.28 236.279 295.633 235.569 296.791 234.151C297.052 233.833 297.313 233.488 297.575 233.115ZM310.074 224.267L310.97 228.859H310.158C309.579 226.731 308.487 225.527 306.882 225.247C306.658 225.209 306.443 225.191 306.238 225.191C305.099 225.191 304.399 225.629 304.138 226.507C304.082 226.712 304.054 226.917 304.054 227.123C304.072 227.944 304.483 228.588 305.286 229.055L308.674 230.987C310.503 232.013 311.427 233.236 311.446 234.655C311.446 235.868 310.876 236.876 309.738 237.679C308.86 238.276 307.871 238.575 306.77 238.575H306.322C304.698 238.593 303.606 238.957 303.046 239.667H301.982L301.058 233.507H301.926C302.635 236.269 304.119 237.669 306.378 237.707C307.684 237.707 308.459 237.212 308.702 236.223C308.739 236.036 308.758 235.849 308.758 235.663C308.739 234.804 308.235 234.085 307.246 233.507L305.426 232.555C303.186 231.36 301.944 230.072 301.702 228.691C301.664 228.485 301.646 228.28 301.646 228.075C301.646 226.693 302.243 225.648 303.438 224.939C304.203 224.491 305.099 224.267 306.126 224.267C306.499 224.267 307.255 224.416 308.394 224.715C308.748 224.808 309.01 224.855 309.178 224.855L309.402 224.267H310.074Z" fill="#fff"/>
<defs>
<linearGradient id="paint0_linear_188_54" x1="148.697" y1="181.963" x2="148.697" y2="193.267" gradientUnits="userSpaceOnUse">
<stop stop-color="#1D94C4"/>
<stop offset="1" stop-color="#0C527B"/>
</linearGradient>
<linearGradient id="paint1_linear_188_54" x1="120.706" y1="0" x2="120.706" y2="192.807" gradientUnits="userSpaceOnUse">
<stop stop-color="#1D94C4"/>
<stop offset="1" stop-color="#0C527B"/>
</linearGradient>
<linearGradient id="paint2_linear_188_54" x1="218.099" y1="60.7393" x2="218.099" y2="191.665" gradientUnits="userSpaceOnUse">
<stop stop-color="#1D94C4"/>
<stop offset="1" stop-color="#0C527B"/>
</linearGradient>
<linearGradient id="paint3_linear_188_54" x1="248.188" y1="30.4702" x2="248.188" y2="90.0474" gradientUnits="userSpaceOnUse">
<stop stop-color="#1D94C4"/>
<stop offset="1" stop-color="#0C527B"/>
</linearGradient>
<linearGradient id="paint4_linear_188_54" x1="158.324" y1="80.8193" x2="158.324" y2="92.5296" gradientUnits="userSpaceOnUse">
<stop stop-color="#1D94C4"/>
<stop offset="1" stop-color="#0C527B"/>
</linearGradient>
<linearGradient id="paint5_linear_188_54" x1="178.488" y1="65.1699" x2="178.488" y2="74.0855" gradientUnits="userSpaceOnUse">
<stop stop-color="#1D94C4"/>
<stop offset="1" stop-color="#0C527B"/>
</linearGradient>
<linearGradient id="paint6_linear_188_54" x1="154.384" y1="130.807" x2="154.384" y2="143.29" gradientUnits="userSpaceOnUse">
<stop stop-color="#1D94C4"/>
<stop offset="1" stop-color="#0C527B"/>
</linearGradient>
<linearGradient id="paint7_linear_188_54" x1="159.496" y1="156.321" x2="159.496" y2="169.332" gradientUnits="userSpaceOnUse">
<stop stop-color="#1D94C4"/>
<stop offset="1" stop-color="#0C527B"/>
</linearGradient>
<linearGradient id="paint8_linear_188_54" x1="149.003" y1="104.47" x2="149.003" y2="117.548" gradientUnits="userSpaceOnUse">
<stop stop-color="#1D94C4"/>
<stop offset="1" stop-color="#0C527B"/>
</linearGradient>
</defs>
</svg>
